{
  "source": "C:\\Users\\Peter\\Desktop\\stuff\\MIUN\\quantitative_research\\video_compression\\videos\\BVI-HD\\BVI-HD_CDVL_videos\\ORIG\\BallUnderWater_1920x1080_60fps.mp4",
  "output": "C:\\Users\\Peter\\Desktop\\stuff\\MIUN\\quantitative_research\\video_compression\\compressed_videos\\BVI-HD\\h264\\2.5\\BallUnderWater_1920x1080_60fps_h264.mp4",
  "codec": "h264",
  "ok": "Input #0, mov,mp4,m4a,3gp,3g2,mj2, from 'C:\\Users\\Peter\\Desktop\\stuff\\MIUN\\quantitative_research\\video_compression\\videos\\BVI-HD\\BVI-HD_CDVL_videos\\ORIG\\BallUnderWater_1920x1080_60fps.mp4':\n  Metadata:\n    major_brand     : isom\n    minor_version   : 512\n    compatible_brands: isomiso2avc1mp41\n    encoder         : Lavf54.28.101\n  Duration: 00:00:05.00, start: 0.000000, bitrate: 212030 kb/s\n  Stream #0:0[0x1](und): Video: h264 (High 4:4:4 Predictive) (avc1 / 0x31637661), yuv420p(progressive), 1920x1080, 212025 kb/s, 60 fps, 60 tbr, 60 tbn (default)\n    Metadata:\n      handler_name    : VideoHandler\n      vendor_id       : [0][0][0][0]\n[out#0/mp4 @ 000001f91d0cae00] Codec AVOption b:a (set bitrate (in bits/s)) has not been used for any stream. The most likely reason is either wrong type (e.g. a video option with no video streams) or that it is a private option of some decoder which was not actually used for any stream.\nStream mapping:\n  Stream #0:0 -> #0:0 (h264 (native) -> h264 (libx264))\nPress [q] to stop, [?] for help\n[libx264 @ 000001f91d854340] using cpu capabilities: MMX2 SSE2Fast SSSE3 SSE4.2 AVX FMA3 BMI2 AVX2\n[libx264 @ 000001f91d854340] profile High, level 5.0, 4:2:0, 8-bit\n[libx264 @ 000001f91d854340] 264 - core 165 r3222 b35605a - H.264/MPEG-4 AVC codec - Copyleft 2003-2025 - http://www.videolan.org/x264.html - options: cabac=1 ref=5 deblock=1:0:0 analyse=0x3:0x113 me=hex subme=8 psy=1 psy_rd=1.00:0.00 mixed_ref=1 me_range=16 chroma_me=1 trellis=2 8x8dct=1 cqm=0 deadzone=21,11 fast_pskip=1 chroma_qp_offset=-2 threads=18 lookahead_threads=3 sliced_threads=0 nr=0 decimate=1 interlaced=0 bluray_compat=0 constrained_intra=0 bframes=3 b_pyramid=2 b_adapt=1 b_bias=0 direct=3 weightb=1 open_gop=0 weightp=2 keyint=250 keyint_min=25 scenecut=40 intra_refresh=0 rc_lookahead=50 rc=cbr mbtree=1 bitrate=2500 ratetol=1.0 qcomp=0.60 qpmin=0 qpmax=69 qpstep=4 vbv_maxrate=2500 vbv_bufsize=2500 nal_hrd=none filler=0 ip_ratio=1.40 aq=1:1.00\nOutput #0, mp4, to 'C:\\Users\\Peter\\Desktop\\stuff\\MIUN\\quantitative_research\\video_compression\\compressed_videos\\BVI-HD\\h264\\2.5\\BallUnderWater_1920x1080_60fps_h264.mp4':\n  Metadata:\n    major_brand     : isom\n    minor_version   : 512\n    compatible_brands: isomiso2avc1mp41\n    encoder         : Lavf62.3.100\n  Stream #0:0(und): Video: h264 (avc1 / 0x31637661), yuv420p(tv, progressive), 1920x1080, q=2-31, 2500 kb/s, 60 fps, 15360 tbn (default)\n    Metadata:\n      encoder         : Lavc62.11.100 libx264\n      handler_name    : VideoHandler\n      vendor_id       : [0][0][0][0]\n    Side data:\n      cpb: bitrate max/min/avg: 2500000/0/2500000 buffer size: 2500000 vbv_delay: N/A\nframe=    0 fps=0.0 q=0.0 size=       0KiB time=N/A bitrate=N/A speed=N/A elapsed=0:00:00.54    \nframe=    0 fps=0.0 q=0.0 size=       0KiB time=N/A bitrate=N/A speed=N/A elapsed=0:00:01.51    \nframe=    0 fps=0.0 q=0.0 size=       0KiB time=N/A bitrate=N/A speed=N/A elapsed=0:00:02.19    \nframe=    6 fps=2.2 q=43.0 size=       0KiB time=00:00:00.06 bitrate=   5.8kbits/s speed=0.024x elapsed=0:00:02.78    \nframe=    8 fps=2.4 q=42.0 size=       0KiB time=00:00:00.10 bitrate=   3.8kbits/s speed=0.0299x elapsed=0:00:03.34    \nframe=   11 fps=2.8 q=42.0 size=       0KiB time=00:00:00.15 bitrate=   2.6kbits/s speed=0.0385x elapsed=0:00:03.90    \nframe=   21 fps=4.7 q=42.0 size=       0KiB time=00:00:00.25 bitrate=   1.5kbits/s speed=0.0559x elapsed=0:00:04.47    \nframe=   43 fps=8.1 q=42.0 size=       0KiB time=00:00:00.58 bitrate=   0.7kbits/s speed=0.111x elapsed=0:00:05.27    \nframe=   54 fps=9.0 q=41.0 size=     256KiB time=00:00:00.80 bitrate=2621.9kbits/s speed=0.133x elapsed=0:00:06.01    \nframe=   60 fps=8.8 q=41.0 size=     256KiB time=00:00:00.96 bitrate=2169.9kbits/s speed=0.142x elapsed=0:00:06.82    \nframe=   62 fps=8.4 q=41.0 size=     256KiB time=00:00:01.00 bitrate=2097.5kbits/s speed=0.135x elapsed=0:00:07.42    \nframe=   68 fps=8.5 q=41.0 size=     256KiB time=00:00:01.08 bitrate=1936.2kbits/s speed=0.135x elapsed=0:00:08.04    \nframe=   75 fps=8.6 q=41.0 size=     256KiB time=00:00:01.20 bitrate=1747.9kbits/s speed=0.137x elapsed=0:00:08.73    \nframe=   83 fps=8.9 q=40.0 size=     256KiB time=00:00:01.31 bitrate=1593.1kbits/s speed=0.142x elapsed=0:00:09.29    \nframe=   91 fps=9.1 q=40.0 size=     256KiB time=00:00:01.45 bitrate=1446.6kbits/s speed=0.146x elapsed=0:00:09.96    \nframe=  101 fps=9.4 q=40.0 size=     256KiB time=00:00:01.61 bitrate=1297.4kbits/s speed=0.15x elapsed=0:00:10.79    \nframe=  109 fps=9.5 q=40.0 size=     512KiB time=00:00:01.76 bitrate=2374.4kbits/s speed=0.153x elapsed=0:00:11.51    \nframe=  115 fps=9.5 q=40.0 size=     512KiB time=00:00:01.86 bitrate=2247.2kbits/s speed=0.154x elapsed=0:00:12.09    \nframe=  124 fps=9.8 q=40.0 size=     512KiB time=00:00:02.00 bitrate=2097.3kbits/s speed=0.157x elapsed=0:00:12.70    \nframe=  131 fps=9.8 q=41.0 size=     512KiB time=00:00:02.15 bitrate=1951.0kbits/s speed=0.161x elapsed=0:00:13.33    \nframe=  141 fps= 10 q=40.0 size=     512KiB time=00:00:02.30 bitrate=1823.8kbits/s speed=0.164x elapsed=0:00:13.98    \nframe=  152 fps= 10 q=40.0 size=     512KiB time=00:00:02.45 bitrate=1712.1kbits/s speed=0.166x elapsed=0:00:14.76    \nframe=  158 fps= 10 q=40.0 size=     768KiB time=00:00:02.60 bitrate=2419.9kbits/s speed=0.167x elapsed=0:00:15.53    \nframe=  167 fps= 10 q=40.0 size=     768KiB time=00:00:02.71 bitrate=2316.0kbits/s speed=0.168x elapsed=0:00:16.12    \nframe=  176 fps= 11 q=40.0 size=     768KiB time=00:00:02.86 bitrate=2194.8kbits/s speed=0.172x elapsed=0:00:16.70    \nframe=  187 fps= 11 q=40.0 size=     768KiB time=00:00:03.05 bitrate=2062.9kbits/s speed=0.175x elapsed=0:00:17.40    \nframe=  191 fps= 11 q=40.0 size=     768KiB time=00:00:03.15 bitrate=1997.4kbits/s speed=0.175x elapsed=0:00:18.03    \nframe=  198 fps= 11 q=40.0 size=     768KiB time=00:00:03.26 bitrate=1926.1kbits/s speed=0.176x elapsed=0:00:18.55    \nframe=  200 fps= 10 q=40.0 size=     768KiB time=00:00:03.30 bitrate=1906.6kbits/s speed=0.173x elapsed=0:00:19.09    \nframe=  207 fps= 11 q=40.0 size=    1024KiB time=00:00:03.41 bitrate=2455.3kbits/s speed=0.174x elapsed=0:00:19.62    \nframe=  215 fps= 11 q=41.0 size=    1024KiB time=00:00:03.55 bitrate=2363.1kbits/s speed=0.176x elapsed=0:00:20.18    \nframe=  223 fps= 11 q=41.0 size=    1024KiB time=00:00:03.68 bitrate=2277.6kbits/s speed=0.178x elapsed=0:00:20.70    \nframe=  230 fps= 11 q=41.0 size=    1024KiB time=00:00:03.78 bitrate=2217.4kbits/s speed=0.178x elapsed=0:00:21.22    \nframe=  242 fps= 11 q=41.0 size=    1024KiB time=00:00:03.98 bitrate=2106.0kbits/s speed=0.182x elapsed=0:00:21.82    \nframe=  258 fps= 12 q=41.0 size=    1280KiB time=00:00:04.26 bitrate=2457.7kbits/s speed=0.19x elapsed=0:00:22.39    \nframe=  276 fps= 12 q=41.0 size=    1280KiB time=00:00:04.56 bitrate=2296.2kbits/s speed=0.199x elapsed=0:00:22.96    \nframe=  295 fps= 13 q=-1.0 size=    1280KiB time=00:00:04.88 bitrate=2147.3kbits/s speed=0.208x elapsed=0:00:23.47    \n[mp4 @ 000001f91d99a040] Starting second pass: moving the moov atom to the beginning of the file\n[out#0/mp4 @ 000001f91d0cae00] video:1525KiB audio:0KiB subtitle:0KiB other streams:0KiB global headers:0KiB muxing overhead: 0.175403%\nframe=  300 fps= 13 q=-1.0 Lsize=    1528KiB time=00:00:04.96 bitrate=2519.7kbits/s speed=0.209x elapsed=0:00:23.78    \n[libx264 @ 000001f91d854340] frame I:3     Avg QP:33.95  size: 10888\n[libx264 @ 000001f91d854340] frame P:238   Avg QP:36.81  size:  5504\n[libx264 @ 000001f91d854340] frame B:59    Avg QP:39.15  size:  3699\n[libx264 @ 000001f91d854340] consecutive B-frames: 73.3%  0.7%  2.0% 24.0%\n[libx264 @ 000001f91d854340] mb I  I16..4: 53.1% 46.5%  0.4%\n[libx264 @ 000001f91d854340] mb P  I16..4: 18.3% 19.2%  0.0%  P16..4: 13.8%  0.4%  0.2%  0.0%  0.0%    skip:48.0%\n[libx264 @ 000001f91d854340] mb B  I16..4:  2.8%  2.4%  0.0%  B16..8: 27.2%  0.8%  0.0%  direct: 0.2%  skip:66.5%  L0:50.6% L1:47.5% BI: 1.9%\n[libx264 @ 000001f91d854340] 8x8 transform intra:50.9% inter:91.0%\n[libx264 @ 000001f91d854340] direct mvs  spatial:84.7% temporal:15.3%\n[libx264 @ 000001f91d854340] coded y,uvDC,uvAC intra: 1.4% 15.5% 0.2% inter: 0.7% 3.0% 0.0%\n[libx264 @ 000001f91d854340] i16 v,h,dc,p: 30% 32%  6% 33%\n[libx264 @ 000001f91d854340] i8 v,h,dc,ddl,ddr,vr,hd,vl,hu:  2%  2% 92%  0%  1%  1%  1%  0%  1%\n[libx264 @ 000001f91d854340] i4 v,h,dc,ddl,ddr,vr,hd,vl,hu:  6%  4% 74%  2%  4%  2%  3%  2%  4%\n[libx264 @ 000001f91d854340] i8c dc,h,v,p: 93%  5%  2%  0%\n[libx264 @ 000001f91d854340] Weighted P-Frames: Y:5.9% UV:2.1%\n[libx264 @ 000001f91d854340] ref P L0: 48.6%  6.5% 20.8%  9.5%  8.1%  6.3%  0.3%\n[libx264 @ 000001f91d854340] ref B L0: 72.6% 16.5%  8.4%  2.6%\n[libx264 @ 000001f91d854340] ref B L1: 91.2%  8.8%\n[libx264 @ 000001f91d854340] kb/s:2497.26\n",
  "seconds": 24.334704160690308,
  "probe_out": {}
}